<?xml version="1.0" encoding="utf-8"?>
<!-- Generator: Adobe Illustrator 21.1.0, SVG Export Plug-In . SVG Version: 6.00 Build 0)  -->
<svg version="1.1" id="Layer_1" xmlns="http://www.w3.org/2000/svg" xmlns:xlink="http://www.w3.org/1999/xlink" x="0px" y="0px"
	 viewBox="0 0 576 576" style="enable-background:new 0 0 576 576;" xml:space="preserve">
<g id="layer1" transform="translate( 0 0 )">
	<path id="path1" d="M205.5,564l5.6,1.6l15.1,3.7l15.4,2.9l15.7,2.1l15.9,1.2l3.5,0.1V564H205.5z M299.3,547.5v25.5l7.1,2.6l6.9-0.5
		l20.6-2.5l20.2-4l1.9-0.5L299.3,547.5z M112.1,516l7.7,5.9l11.1,7.6l11.4,7.1l6.2,3.5h128v-24H112.1z M299.3,496.4V522l94.2,34.3
		l11.6-4.8l12-5.7l7.2-3.8L299.3,496.4z M63.2,468l7.3,8.8l9,9.9l5.3,5.3h191.8v-24H63.2z M299.3,445.4v25.5L450.7,526l0.7-0.5
		l10.7-7.7l10.3-8.2l1-0.9L299.3,445.4z M32,420l0.7,1.4l6.5,11.8l6.6,10.8h230.8v-24H32z M327.5,404.5l-0.7,0.3l-12.8,3.5
		l-13.3,2.1l-1.2,0.1v9.4l193.9,70.6l7.7-8.1l8.7-9.9l1-1.2L327.5,404.5z M12.5,372l1.8,5.6l2.2,6.5L21,396h208.2l-2.1-1.1l-7.1-4.4
		l-6.8-4.8l-6.4-5.3l-6-5.7l-2.6-2.7H12.5z M378,371.8l-3,3.1l-7.6,7l-8.2,6.3l-2.1,1.5l168.6,61.4l7.1-10.8l5.9-10L378,371.8z
		 M403.6,330.1l-0.6,1.6l-4.1,9.6l-4.9,9.2l-0.8,1.3l156.6,57l1.7-3.6l5.1-12.3l2.3-6.2L403.6,330.1z M2.2,324l0.9,6.5l2.4,13.8
		l0.8,3.7h174.3l-2.5-4.7l-3.5-7.6l-3-7.9l-1.2-3.8H2.2z M529.7,299.3l45.2,16.5l0.2-2.5l0.9-14H529.7z M410.5,299.3l-0.1,1.2
		l-0.7,5.4l-0.1,0.7l156.6,57l0.8-3l4.4-20l0.1-0.6l-112-40.8H410.5z M0.3,276l-0.2,4.8L0,288l0.1,7.2l0.2,4.8h165.3l0-0.2l-0.4-5.9
		L165,288l0.1-5.9l0.4-5.9l0-0.2H0.3z M574.9,260.2l-45.2,16.5H576l-0.9-14L574.9,260.2z M6.3,228l-0.8,3.7l-2.4,13.8L2.2,252h168.1
		l1.2-3.8l3-7.9l3.5-7.6l2.5-4.7H6.3z M566.2,212.3l-156.6,57l0.1,0.7l0.7,5.4l0.1,1.2h49l112-40.8l-0.1-0.6l-4.4-20L566.2,212.3z
		 M288,188l-10.2,0.5l-9.9,1.5l-9.6,2.5l-9.2,3.4l-8.7,4.2l-8.2,5l-7.7,5.8l-7.1,6.5l-6.5,7.1l-5.8,7.7l-5,8.2l-4.2,8.7l-3.4,9.2
		l-2.5,9.6l-1.5,9.9L188,288l0.5,10.2l1.5,9.9l2.5,9.6l3.4,9.2l4.2,8.7l5,8.2l5.8,7.7l6.5,7.1l7.1,6.5l7.7,5.8l8.2,5l8.7,4.2
		l9.2,3.4l9.6,2.5l9.9,1.5L288,388l10.2-0.5l9.9-1.5l9.6-2.5l9.2-3.4l8.7-4.2l8.2-5l7.7-5.8l7.1-6.5l6.5-7.1l5.8-7.7l5-8.2l4.2-8.7
		l3.4-9.2l2.5-9.6l1.5-9.9L388,288l-0.5-10.2l-1.5-9.9l-2.5-9.6l-3.4-9.2l-4.2-8.7l-5-8.2l-5.8-7.7l-6.5-7.1l-7.1-6.5l-7.7-5.8
		l-8.2-5l-8.7-4.2l-9.2-3.4l-9.6-2.5l-9.9-1.5L288,188z M21,180l-4.5,11.9l-2.2,6.5l-1.8,5.6h185.7l2.6-2.7l6-5.7l6.4-5.3l6.8-4.8
		l7.1-4.4l2.1-1.1H21z M549.7,167.2l-156.6,57l0.8,1.3l4.9,9.2l4.1,9.6l0.6,1.6l155.3-56.5l-2.3-6.2l-5.1-12.3L549.7,167.2z
		 M45.9,132l-6.6,10.8l-6.5,11.8L32,156h244.7v-24H45.9z M525.7,124.9l-168.6,61.4l2.1,1.5l8.2,6.3l7.6,7l3,3.1l160.7-58.5l-5.9-10
		L525.7,124.9z M493.3,85.6l-193.9,70.6v9.4l1.2,0.1l13.3,2.1l12.8,3.5l0.7,0.3l183.1-66.7l-1-1.2l-8.7-9.9L493.3,85.6z M84.8,84
		l-5.3,5.3l-9,9.9l-7.3,8.8h213.4V84H84.8z M450.7,50l-151.4,55.1v25.5l174.1-63.4l-1-0.9l-10.3-8.2l-10.7-7.7L450.7,50z M148.6,36
		l-6.2,3.5l-11.4,7.1l-11.1,7.6l-7.7,5.9h164.5V36H148.6z M393.6,19.7L299.3,54v25.5l125-45.5l-7.2-3.8l-12-5.7L393.6,19.7z
		 M306.4,0.4l-7.1,2.6v25.5L356,7.8l-1.9-0.5l-20.2-4l-20.6-2.5L306.4,0.4z M276.7,0.2l-3.5,0.1l-15.9,1.2l-15.7,2.1l-15.4,2.9
		l-15.1,3.7l-5.6,1.6h71.2V0.2z M288-45.4l17.2,0.4l16.9,1.3l16.7,2.1l16.4,2.9l16.1,3.7l15.8,4.5l15.5,5.2l15.1,6l14.8,6.7
		l14.4,7.4l14,8l13.5,8.7l13.1,9.3l12.6,9.9l12.1,10.5l11.6,11l11,11.6L545.2,76l9.9,12.6l9.3,13.1l8.7,13.5l8,14l7.4,14.4l6.7,14.8
		l6,15.1l5.2,15.5l4.5,15.8l3.7,16.1l2.9,16.4l2.1,16.7l1.3,16.9l0.4,17.2l-0.4,17.2l-1.3,16.9l-2.1,16.7l-2.9,16.4l-3.7,16.1
		l-4.5,15.8l-5.2,15.5l-6,15.1l-6.7,14.8l-7.4,14.4l-8,14l-8.7,13.5l-9.3,13.1l-9.9,12.6l-10.5,12.1l-11,11.6l-11.6,11L500,545.2
		l-12.6,9.9l-13.1,9.3l-13.5,8.7l-14,8l-14.4,7.4l-14.8,6.7l-15.1,6l-15.5,5.2l-15.8,4.5l-16.1,3.7l-16.4,2.9l-16.7,2.1l-16.9,1.3
		l-17.2,0.4l-17.2-0.4l-16.9-1.3l-16.7-2.1l-16.4-2.9l-16.1-3.7l-15.8-4.5l-15.5-5.2l-15.1-6l-14.8-6.7l-14.4-7.4l-14-8l-13.5-8.7
		l-13.1-9.3L76,545.2l-12.1-10.5l-11.6-11l-11-11.6L30.8,500l-9.9-12.6l-9.3-13.1l-8.7-13.5l-8-14l-7.4-14.4l-6.7-14.8l-6-15.1
		l-5.2-15.5l-4.5-15.8l-3.7-16.1l-2.9-16.4l-2.1-16.7l-1.3-16.9l-0.4-17.2l0.4-17.2l1.3-16.9l2.1-16.7l2.9-16.4l3.7-16.1l4.5-15.8
		l5.2-15.5l6-15.1l6.7-14.8l7.4-14.4l8-14l8.7-13.5l9.3-13.1L30.8,76l10.5-12.1l11-11.6l11.6-11L76,30.8l12.6-9.9l13.1-9.3l13.5-8.7
		l14-8l14.4-7.4l14.8-6.7l15.1-6l15.5-5.2l15.8-4.5l16.1-3.7l16.4-2.9l16.7-2.1l16.9-1.3L288-45.4z"/>
</g>
</svg>
